<svg width="16" height="16" viewBox="0 0 16 16" fill="none" xmlns="http://www.w3.org/2000/svg">
<path d="M9.99994 14.6666V12C10.0927 11.1648 9.85323 10.3267 9.33328 9.66665C11.3333 9.66665 13.3333 8.33331 13.3333 5.99998C13.3866 5.16665 13.1533 4.34665 12.6666 3.66665C12.8533 2.89998 12.8533 2.09998 12.6666 1.33331C12.6666 1.33331 11.9999 1.33331 10.6666 2.33331C8.90661 1.99998 7.09328 1.99998 5.33328 2.33331C3.99994 1.33331 3.33328 1.33331 3.33328 1.33331C3.13328 2.09998 3.13328 2.89998 3.33328 3.66665C2.84786 4.3439 2.61226 5.1685 2.66661 5.99998C2.66661 8.33331 4.66661 9.66665 6.66661 9.66665C6.40661 9.99331 6.21328 10.3666 6.09994 10.7666C5.98661 11.1666 5.95328 11.5866 5.99994 12V14.6666" stroke="#18181B" stroke-linecap="round" stroke-linejoin="round"/>
<path d="M5.99992 12C2.99325 13.3334 2.66659 10.6667 1.33325 10.6667" stroke="#18181B" stroke-linecap="round" stroke-linejoin="round"/>
</svg>
